<svg xmlns="http://www.w3.org/2000/svg" viewBox="0 0 512 512" style="height: 512px; width: 512px;"><circle cx="256" cy="256" r="248" fill="#fff" fill-opacity="1" stroke="#000000" stroke-opacity="1" stroke-width="8"></circle><g class="" transform="translate(0,0)" style="touch-action: none;"><path d="M492.656 20.406l-118.594 56.22L413.875 86l-86.97 86.97-305.5 259.374.69.687 104.75-47.467-46.376 105.843.905.906 272.5-319.875 73.22-73.218 9.342 39.81 56.22-118.624zm-473.25.063c-1.347 23.43 5 39.947 16.563 52.218l24.093 302.28 17.562-14.874-21.72-272.438c57.975 31.954 169.096 25.165 216.907 106.72l66.625-56.564 1.22-1.218C292.74 38.666 86.01 99.716 19.406 20.47zm359.531 151.56l-1.156 1.157-57.25 67.188c82.006 47.945 75.587 159.267 107.283 218.03l-272.157-24.5-14.812 17.408 301.562 27.125c12.48 12.283 29.4 19.084 53.688 17.687-79.95-67.2-18.36-275.754-117.156-324.094z" fill="#000" fill-opacity="1" transform="translate(51.2, 51.2) scale(0.8, 0.8) rotate(0, 256, 256)"></path></g><g class="" transform="translate(256,256)" style="touch-action: none;"><g><circle cx="128" cy="128" r="128" fill="#000000" fill-opacity="1"></circle><circle stroke="#ff001f" stroke-opacity="1" fill="#000000" fill-opacity="1" stroke-width="18" cx="128" cy="128" r="101"></circle><path fill="#ff001f" fill-opacity="1" d="M89.11 76.38L76.38 89.11 115.272 128l-38.89 38.89 12.728 12.73L128 140.728l38.89 38.89 12.73-12.728L140.728 128l38.89-38.89-12.728-12.73L128 115.272z"></path></g></g></svg>