<svg xmlns="http://www.w3.org/2000/svg" viewBox="0 0 512 512" style="height: 512px; width: 512px;"><circle cx="256" cy="256" r="248" fill="#ffffff" fill-opacity="1" stroke="#000000" stroke-opacity="1" stroke-width="8"></circle><g class="" transform="translate(0,0)" style="touch-action: none;"><path d="M124.812 388.907a60.718 60.718 0 0 0 16.564 11.588L107.28 435.07a48.756 48.756 0 0 0-28.35-28.006l34.16-34.576a61.093 61.093 0 0 0 11.722 16.42zm209.598-276.44c-32.754 33.14-57.813 79.127-103.008 124.853-9.13 9.245-40.292 37.355-58.303 53.555l49.223 48.64c15.98-18.24 43.727-49.744 52.858-58.978 45.154-45.726 90.828-71.39 123.57-104.477C452.683 121.485 481 28.492 481 28.492s-92.67 29.4-146.59 83.976zM83.656 430.594a30.92 30.92 0 1 0 .26 43.727 30.817 30.817 0 0 0-.26-43.727zm91.13-40.603c11.16 0 20.822-2.81 24.497-6.56l20.885-21.103-69.88-69.047-20.823 21.135c-7.964 8.068-11.233 43.06 7.85 61.905 10.12 10.026 24.79 13.66 37.47 13.66z" fill="#000000" fill-opacity="1" transform="translate(51.2, 51.2) scale(0.8, 0.8) rotate(0, 256, 256)"></path></g><g class="" transform="translate(256,256)" style="touch-action: none;"><g><circle cx="128" cy="128" r="128" fill="#000" fill-opacity="1"></circle><circle stroke="#ff001f" stroke-opacity="1" fill="#000" fill-opacity="1" stroke-width="18" cx="128" cy="128" r="101"></circle><path fill="#ff001f" fill-opacity="1" d="M89.11 76.38L76.38 89.11 115.272 128l-38.89 38.89 12.728 12.73L128 140.728l38.89 38.89 12.73-12.728L140.728 128l38.89-38.89-12.728-12.73L128 115.272z"></path></g></g></svg>